<mxfile host="65bd71144e">
    <diagram id="2drvwfHndjZh-GaF7R1N" name="Page-1">
        <mxGraphModel dx="1097" dy="524" grid="1" gridSize="10" guides="1" tooltips="1" connect="1" arrows="1" fold="1" page="1" pageScale="1" pageWidth="850" pageHeight="1100" math="0" shadow="0">
            <root>
                <mxCell id="0"/>
                <mxCell id="1" parent="0"/>
                <mxCell id="2" value="" style="rounded=0;whiteSpace=wrap;html=1;fillColor=#9968FF;strokeColor=#9968FF;" vertex="1" parent="1">
                    <mxGeometry x="140" y="130" width="560" height="300" as="geometry"/>
                </mxCell>
                <mxCell id="3" value="&lt;span style=&quot;font-size: 24px;&quot;&gt;Pipeline Manager&lt;/span&gt;" style="text;html=1;align=center;verticalAlign=middle;whiteSpace=wrap;rounded=0;" vertex="1" parent="1">
                    <mxGeometry x="323" y="130" width="205" height="40" as="geometry"/>
                </mxCell>
                <mxCell id="4" value="" style="rounded=0;whiteSpace=wrap;html=1;" vertex="1" parent="1">
                    <mxGeometry x="170" y="170" width="500" height="130" as="geometry"/>
                </mxCell>
                <mxCell id="5" value="" style="endArrow=none;html=1;exitX=0;exitY=0.25;exitDx=0;exitDy=0;entryX=1;entryY=0.25;entryDx=0;entryDy=0;" edge="1" parent="1" source="4" target="4">
                    <mxGeometry width="50" height="50" relative="1" as="geometry">
                        <mxPoint x="610" y="410" as="sourcePoint"/>
                        <mxPoint x="660" y="360" as="targetPoint"/>
                    </mxGeometry>
                </mxCell>
                <mxCell id="6" value="Pipeline 表" style="text;html=1;align=center;verticalAlign=middle;whiteSpace=wrap;rounded=0;" vertex="1" parent="1">
                    <mxGeometry x="385" y="170" width="80" height="30" as="geometry"/>
                </mxCell>
                <mxCell id="8" value="Pipeline&lt;br&gt;优先度：-1" style="rounded=0;whiteSpace=wrap;html=1;strokeColor=#99FF33;fillColor=#99FF33;" vertex="1" parent="1">
                    <mxGeometry x="180" y="210" width="90" height="80" as="geometry"/>
                </mxCell>
                <mxCell id="9" value="Pipeline&lt;br&gt;优先度：0" style="rounded=0;whiteSpace=wrap;html=1;strokeColor=#99FF33;fillColor=#99FF33;" vertex="1" parent="1">
                    <mxGeometry x="290" y="210" width="90" height="80" as="geometry"/>
                </mxCell>
                <mxCell id="10" value="Pipeline&lt;br&gt;优先度：1" style="rounded=0;whiteSpace=wrap;html=1;strokeColor=#99FF33;fillColor=#99FF33;" vertex="1" parent="1">
                    <mxGeometry x="400" y="210" width="90" height="80" as="geometry"/>
                </mxCell>
                <mxCell id="11" value="Pipeline&lt;br&gt;优先度：2" style="rounded=0;whiteSpace=wrap;html=1;strokeColor=#99FF33;fillColor=#99FF33;" vertex="1" parent="1">
                    <mxGeometry x="510" y="210" width="90" height="80" as="geometry"/>
                </mxCell>
                <mxCell id="19" style="edgeStyle=none;html=1;entryX=0;entryY=0.5;entryDx=0;entryDy=0;" edge="1" parent="1" source="12" target="17">
                    <mxGeometry relative="1" as="geometry"/>
                </mxCell>
                <mxCell id="12" value="负载均衡与&lt;br&gt;优先度计算" style="rounded=0;whiteSpace=wrap;html=1;" vertex="1" parent="1">
                    <mxGeometry x="170" y="340" width="120" height="60" as="geometry"/>
                </mxCell>
                <mxCell id="13" value="" style="endArrow=classic;html=1;entryX=0;entryY=0.5;entryDx=0;entryDy=0;" edge="1" parent="1" target="12">
                    <mxGeometry width="50" height="50" relative="1" as="geometry">
                        <mxPoint x="50" y="370" as="sourcePoint"/>
                        <mxPoint x="310" y="330" as="targetPoint"/>
                    </mxGeometry>
                </mxCell>
                <mxCell id="14" value="请求" style="text;html=1;align=center;verticalAlign=middle;whiteSpace=wrap;rounded=0;" vertex="1" parent="1">
                    <mxGeometry x="60" y="340" width="60" height="30" as="geometry"/>
                </mxCell>
                <mxCell id="15" value="执行上下文" style="text;html=1;align=center;verticalAlign=middle;whiteSpace=wrap;rounded=0;" vertex="1" parent="1">
                    <mxGeometry x="50" y="370" width="80" height="30" as="geometry"/>
                </mxCell>
                <mxCell id="21" style="edgeStyle=none;html=1;entryX=0;entryY=0.5;entryDx=0;entryDy=0;" edge="1" parent="1" source="17" target="20">
                    <mxGeometry relative="1" as="geometry"/>
                </mxCell>
                <mxCell id="17" value="选择合适的PipeLine" style="rounded=0;whiteSpace=wrap;html=1;" vertex="1" parent="1">
                    <mxGeometry x="345" y="340" width="120" height="60" as="geometry"/>
                </mxCell>
                <mxCell id="18" value="" style="endArrow=classic;html=1;exitX=0.5;exitY=1;exitDx=0;exitDy=0;entryX=0.627;entryY=0.003;entryDx=0;entryDy=0;entryPerimeter=0;" edge="1" parent="1" source="4" target="17">
                    <mxGeometry width="50" height="50" relative="1" as="geometry">
                        <mxPoint x="360" y="330" as="sourcePoint"/>
                        <mxPoint x="410" y="280" as="targetPoint"/>
                    </mxGeometry>
                </mxCell>
                <mxCell id="22" style="edgeStyle=none;html=1;" edge="1" parent="1" source="20">
                    <mxGeometry relative="1" as="geometry">
                        <mxPoint x="730" y="370" as="targetPoint"/>
                    </mxGeometry>
                </mxCell>
                <mxCell id="20" value="调用PipeLine的&lt;br&gt;submit函数" style="rounded=0;whiteSpace=wrap;html=1;" vertex="1" parent="1">
                    <mxGeometry x="520" y="340" width="120" height="60" as="geometry"/>
                </mxCell>
            </root>
        </mxGraphModel>
    </diagram>
</mxfile>